[img]http://img688.imageshack.us/img688/117/princeofpersiabluray320.jpg[/img]
 
http://www.imdb.com/title/tt0473075/

Source: Prince.of.Persia.The.Sands.of.Time.720p.BluRay.x264-HUBRIS 

Subs: Albanian, Arabic, Brazilian, Bulgarian, Croatian, Danish, Dutch, English, Finnish, French, Greek, Hungarian, Indonesian, Italian, Malay, Norwegian, Persian, Polish, Portuguese, Romanian, Russian, Serbian, Slovenian, Spanish, Swedish and Turkish.

Sample and Screens included.

General
Complete name                    : Prince of Persia-The Sands of Time-720p MP4 AAC BRRip 2010-CC.mp4
Format                           : MPEG-4
Format profile                   : Base Media
Codec ID                         : isom
File size                        : 2.12 GiB
Duration                         : 1h 55mn
Overall bit rate                 : 2 622 Kbps
Encoded date                     : UTC 2012-02-23 06:38:42
Tagged date                      : UTC 2012-02-23 06:38:42
Writing application              : Yamb 2.1.0.0

Video
ID                               : 1
Format                           : AVC
Format/Info                      : Advanced Video Codec
Format profile                   : High@L3.1
Format settings, CABAC           : Yes
Format settings, ReFrames        : 5 frames
Codec ID                         : avc1
Codec ID/Info                    : Advanced Video Coding
Duration                         : 1h 55mn
Bit rate mode                    : Variable
Bit rate                         : 2 254 Kbps
Maximum bit rate                 : 9 726 Kbps
Width                            : 1 280 pixels
Height                           : 528 pixels
Display aspect ratio             : 2.35:1
Original display aspect ratio    : 2.35:1
Frame rate mode                  : Variable
Frame rate                       : 23.976 fps
Minimum frame rate               : 19.048 fps
Maximum frame rate               : 24.390 fps
Color space                      : YUV
Chroma subsampling               : 4:2:0
Bit depth                        : 8 bits
Scan type                        : Progressive
Bits/(Pixel*Frame)               : 0.139
Stream size                      : 1.81 GiB (85%)
Writing library                  : x264 core 112
Encoding settings                : cabac=1 / ref=5 / deblock=1:0:0 / analyse=0x3:0x113 / me=hex / subme=7 / psy=1 / psy_rd=1.00:0.00 / mixed_ref=1 / me_range=16 / chroma_me=1 / trellis=1 / 8x8dct=1 / cqm=0 / deadzone=21,11 / fast_pskip=1 / chroma_qp_offset=-2 / threads=3 / sliced_threads=0 / nr=0 / decimate=1 / interlaced=0 / constrained_intra=0 / bframes=5 / b_pyramid=2 / b_adapt=2 / b_bias=0 / direct=1 / weightb=1 / open_gop=0 / weightp=2 / keyint=240 / keyint_min=24 / scenecut=40 / intra_refresh=0 / rc_lookahead=50 / rc=abr / mbtree=1 / bitrate=2254 / ratetol=1.0 / qcomp=0.60 / qpmin=3 / qpmax=51 / qpstep=4 / ip_ratio=1.40 / aq=1:1.00
Encoded date                     : UTC 2012-02-23 22:58:04
Tagged date                      : UTC 2012-02-23 06:43:07
Color primaries                  : BT.709-5, BT.1361, IEC 61966-2-4, SMPTE RP177
Transfer characteristics         : BT.709-5, BT.1361
Matrix coefficients              : BT.709-5, BT.1361, IEC 61966-2-4 709, SMPTE RP177

Audio
ID                               : 2
Format                           : AAC
Format/Info                      : Advanced Audio Codec
Format version                   : Version 4
Format profile                   : LC
Format settings, SBR             : No
Codec ID                         : 40
Duration                         : 1h 55mn
Bit rate mode                    : Variable
Bit rate                         : 384 Kbps
Maximum bit rate                 : 597 Kbps
Channel(s)                       : 6 channels
Channel positions                : Front: L C R, Side: L R, LFE
Sampling rate                    : 48.0 KHz
Stream size                      : 318 MiB (15%)
Encoded date                     : UTC 2012-02-23 06:42:00
Tagged date                      : UTC 2012-02-23 06:43:07

Enjoy...

[img]http://img196.imageshack.us/img196/8642/princeofpersiathesandsox.png[/img]

[img]http://img256.imageshack.us/img256/8158/princeofpersiathesandso.png[/img]

[img]http://img407.imageshack.us/img407/8158/princeofpersiathesandso.png[/img]

[img]http://img21.imageshack.us/img21/8158/princeofpersiathesandso.png[/img]

[img]http://img96.imageshack.us/img96/7790/princeofpersiathesandsom.png[/img]

[img]http://img826.imageshack.us/img826/9863/princeofpersiathesandsot.png[/img]

[img]http://img337.imageshack.us/img337/9109/princeofpersiathesandsow.png[/img]

[img]http://img43.imageshack.us/img43/8933/princeofpersiathesandsojg.png[/img]